<?xml version="1.0" standalone="no"?>
<!DOCTYPE svg PUBLIC "-//W3C//DTD SVG 20010904//EN"
 "http://www.w3.org/TR/2001/REC-SVG-20010904/DTD/svg10.dtd">
<svg version="1.0" xmlns="http://www.w3.org/2000/svg"
 width="872.000000pt" height="872.000000pt" viewBox="0 0 872.000000 872.000000"
 preserveAspectRatio="xMidYMid meet">
<metadata>
Created by potrace 1.14, written by Peter Selinger 2001-2017
</metadata>
<g transform="translate(0.000000,872.000000) scale(0.100000,-0.100000)"
fill="#000000" stroke="none">
<path d="M4665 8152 c-16 -2 -36 -9 -44 -15 -12 -10 -13 -9 -7 1 8 14 5 13
-53 -17 -19 -10 -22 -10 -16 1 6 10 5 11 -6 1 -7 -7 -23 -13 -35 -13 -13 0
-26 -4 -29 -10 -3 -5 -15 -10 -25 -10 -10 0 -20 -5 -22 -10 -2 -6 -13 -12 -26
-13 -12 0 -22 -5 -22 -10 0 -4 -4 -5 -10 -2 -5 3 -10 1 -10 -5 0 -6 -4 -8 -10
-5 -5 3 -10 1 -10 -4 0 -6 -3 -10 -7 -9 -17 3 -43 -15 -43 -31 0 -14 -2 -14
-10 -1 -8 12 -10 12 -15 -2 -4 -10 -16 -15 -30 -14 -18 2 -22 -1 -18 -13 4 -9
3 -13 -1 -9 -9 8 -36 -14 -30 -24 2 -3 -6 -4 -18 0 -11 3 -19 1 -16 -4 2 -5
-6 -20 -19 -34 -20 -21 -23 -21 -18 -5 4 13 0 10 -11 -7 -10 -14 -28 -31 -41
-37 -13 -6 -26 -18 -29 -26 -4 -8 -10 -12 -15 -9 -5 3 -8 1 -7 -4 2 -5 -9 -21
-24 -35 -15 -14 -24 -28 -21 -31 4 -3 1 -6 -6 -6 -7 0 -9 -5 -5 -12 4 -7 3 -8
-5 -4 -7 5 -15 -4 -22 -23 -6 -18 -16 -28 -22 -24 -7 4 -8 0 -4 -11 4 -9 3
-15 -1 -13 -9 6 -33 -19 -25 -27 3 -3 -2 -8 -11 -12 -9 -3 -13 -10 -10 -16 3
-5 -4 -12 -16 -15 -16 -4 -18 -8 -8 -14 10 -6 9 -12 -7 -24 -11 -9 -14 -13 -6
-9 9 5 12 3 7 -4 -4 -7 -15 -12 -24 -12 -15 0 -15 -2 -2 -10 10 -6 11 -10 3
-10 -7 0 -13 -7 -13 -15 0 -8 -4 -15 -10 -15 -5 0 -12 -11 -16 -25 -3 -13 -12
-29 -20 -36 -8 -6 -11 -15 -8 -20 5 -8 -9 -13 -28 -10 -4 0 -5 -6 -2 -14 4 -9
1 -22 -6 -30 -7 -8 -9 -15 -4 -15 5 0 1 -5 -9 -11 -9 -6 -15 -14 -12 -20 4 -5
-1 -12 -10 -15 -9 -4 -14 -12 -12 -19 3 -6 -6 -20 -19 -30 -13 -10 -24 -23
-24 -29 0 -6 5 -4 10 4 7 11 10 12 10 2 0 -8 -9 -16 -20 -19 -11 -3 -17 -10
-14 -15 3 -5 -2 -16 -12 -24 -11 -9 -13 -13 -4 -9 8 4 4 -3 -9 -14 -14 -13
-18 -21 -10 -21 9 -1 8 -4 -4 -11 -14 -8 -16 -14 -6 -25 7 -8 7 -14 1 -14 -5
0 -12 -9 -15 -20 -3 -11 -2 -18 2 -15 4 2 8 -2 8 -10 0 -8 -5 -11 -10 -8 -6 3
-8 -6 -5 -24 3 -25 1 -30 -16 -28 -25 1 -48 -14 -40 -26 5 -9 -20 -12 -78 -11
-16 0 -28 -3 -28 -8 0 -12 -35 -18 -53 -9 -10 6 -18 5 -22 -1 -4 -6 -11 -8
-16 -5 -5 4 -11 0 -14 -7 -4 -10 -23 -13 -65 -12 -41 1 -60 -2 -60 -10 0 -7
-13 -11 -32 -10 -18 1 -35 -1 -38 -6 -3 -5 -39 -10 -80 -11 -41 -2 -78 -8 -82
-14 -5 -6 -11 -5 -17 3 -7 12 -11 12 -22 -1 -7 -7 -21 -12 -31 -9 -10 2 -26 1
-35 -3 -10 -5 -40 -10 -68 -12 -27 -3 -56 -10 -64 -16 -12 -9 -13 -9 -7 1 4 6
2 12 -3 12 -6 0 -11 -4 -11 -10 0 -5 -14 -10 -31 -10 -16 0 -28 -4 -25 -8 2
-4 -5 -9 -17 -10 -47 -3 -75 -11 -124 -34 -12 -6 -29 -8 -39 -4 -13 5 -15 4
-5 -7 9 -12 6 -14 -17 -13 -15 0 -42 -9 -58 -21 -24 -17 -34 -19 -43 -10 -10
9 -11 8 -5 -8 4 -11 4 -17 -1 -13 -4 4 -14 3 -21 -3 -8 -6 -20 -9 -29 -5 -8 3
-14 0 -12 -6 1 -7 -7 -14 -18 -16 -11 -2 -23 -9 -27 -16 -5 -8 -8 -7 -8 3 0 8
-8 4 -21 -10 -11 -13 -17 -17 -13 -9 7 12 5 13 -8 3 -8 -7 -19 -9 -23 -5 -5 4
-5 1 -1 -5 4 -7 2 -13 -4 -13 -6 0 -9 -4 -6 -8 3 -5 0 -9 -7 -9 -26 -1 -43 -9
-62 -29 -12 -11 -27 -18 -34 -16 -9 3 -11 0 -6 -8 6 -10 4 -12 -9 -7 -14 6
-17 3 -12 -9 6 -14 4 -15 -9 -4 -9 7 -15 9 -13 4 2 -5 -1 -10 -6 -11 -5 0 -13
-8 -18 -17 -5 -9 -13 -14 -18 -11 -4 3 -10 -2 -14 -10 -3 -8 -12 -15 -21 -15
-8 0 -15 -5 -15 -10 0 -6 -16 -18 -35 -27 -19 -9 -32 -20 -29 -25 3 -4 0 -8
-6 -8 -6 0 -8 -5 -4 -12 4 -7 3 -8 -5 -4 -7 5 -20 -3 -32 -18 -11 -14 -26 -25
-32 -23 -7 1 -11 -4 -10 -10 2 -7 -2 -13 -8 -13 -16 0 -39 -26 -31 -35 4 -5
-1 -5 -10 -2 -17 6 -24 -9 -18 -38 1 -5 -4 -4 -11 3 -18 17 -30 15 -23 -3 4
-8 -1 -17 -10 -21 -9 -3 -13 -11 -9 -17 4 -6 0 -8 -11 -4 -9 4 -14 3 -11 -2 3
-5 -3 -16 -13 -23 -11 -7 -21 -17 -23 -23 -2 -5 -8 -9 -13 -7 -5 2 -6 -5 -2
-14 5 -14 4 -15 -9 -4 -13 11 -15 10 -10 -2 6 -15 -28 -62 -38 -52 -3 3 -8 -3
-11 -14 -4 -11 -15 -30 -26 -42 -11 -12 -17 -26 -15 -30 3 -4 -7 -15 -20 -24
-15 -10 -23 -22 -19 -28 5 -7 2 -9 -8 -5 -12 4 -14 1 -11 -14 4 -14 1 -18 -10
-13 -10 4 -15 0 -14 -13 1 -10 -3 -17 -10 -16 -7 2 -10 -6 -8 -17 2 -13 -2
-20 -11 -20 -8 0 -13 -6 -11 -12 1 -7 -4 -12 -12 -10 -12 3 -12 1 0 -14 8 -10
9 -15 3 -11 -12 7 -29 -19 -25 -37 1 -5 -5 -6 -12 -3 -10 4 -13 0 -10 -13 3
-10 -1 -21 -8 -25 -8 -6 -10 -4 -4 5 5 9 4 11 -4 6 -6 -4 -9 -12 -5 -17 3 -6
-2 -17 -12 -25 -11 -9 -12 -12 -4 -8 8 4 2 -8 -15 -27 -16 -18 -21 -27 -10
-19 17 12 17 10 -2 -11 -13 -14 -23 -31 -23 -37 0 -7 -4 -12 -9 -12 -5 0 -11
-9 -14 -21 -4 -14 -10 -18 -19 -13 -11 6 -11 5 0 -8 10 -13 10 -17 -3 -22 -9
-3 -14 -9 -12 -13 7 -11 -19 -33 -29 -25 -5 4 -3 0 4 -9 10 -13 10 -19 -1 -28
-8 -6 -18 -7 -22 -3 -5 4 -6 0 -2 -9 3 -9 0 -22 -6 -29 -9 -10 -9 -11 3 -6 8
4 4 -2 -10 -14 -14 -12 -18 -18 -10 -14 18 10 -14 -43 -39 -64 -9 -8 -10 -11
-3 -7 15 8 16 -11 1 -20 -6 -4 -8 -14 -4 -22 5 -14 3 -14 -11 -2 -16 13 -16
12 -5 -8 6 -13 8 -23 3 -23 -10 0 -24 -32 -26 -60 -1 -8 -7 -14 -12 -13 -6 1
-10 -8 -9 -20 1 -12 -5 -27 -14 -34 -12 -10 -13 -12 -2 -13 11 0 11 -3 1 -15
-7 -9 -10 -18 -7 -21 3 -4 -1 -13 -9 -22 -13 -12 -13 -16 -2 -23 11 -7 11 -9
0 -9 -8 0 -12 -6 -10 -12 3 -7 -2 -19 -10 -27 -11 -11 -11 -16 -3 -19 9 -3 7
-10 -5 -23 -9 -10 -14 -19 -9 -19 4 0 2 -7 -5 -15 -10 -12 -10 -15 1 -15 9 0
10 -3 4 -8 -12 -8 -18 -28 -18 -59 -1 -13 -5 -23 -9 -23 -4 0 -8 -10 -8 -22 0
-50 -5 -97 -12 -104 -4 -4 -2 -14 5 -22 7 -10 8 -13 1 -9 -8 5 -11 -9 -10 -43
1 -28 -2 -50 -6 -50 -3 0 -5 -8 -3 -17 1 -10 -2 -26 -7 -35 -5 -12 -5 -18 1
-18 7 0 7 -9 1 -25 -7 -18 -6 -25 3 -25 7 0 8 -3 2 -8 -13 -9 -15 -62 -3 -62
5 0 6 -5 3 -11 -11 -17 -12 -69 -2 -69 5 0 4 -6 -2 -14 -9 -11 -8 -18 4 -30 9
-9 11 -16 5 -16 -8 0 -8 -6 1 -21 8 -15 8 -19 0 -15 -6 4 -11 2 -11 -3 0 -6 4
-11 8 -11 4 0 7 -19 7 -42 0 -24 3 -49 8 -55 5 -7 7 -19 4 -27 -3 -7 1 -25 8
-40 8 -15 11 -24 6 -22 -4 3 -8 -1 -8 -9 0 -8 4 -12 8 -10 4 3 7 -12 7 -32 0
-21 5 -39 11 -41 8 -3 9 -8 2 -16 -8 -9 -5 -19 9 -34 23 -24 26 -37 8 -26 -10
6 -10 4 0 -7 6 -7 12 -23 12 -36 0 -13 5 -23 11 -23 6 0 9 -9 6 -20 -3 -11 -1
-20 5 -20 5 0 6 -5 3 -10 -3 -5 -2 -10 4 -10 10 0 9 -19 -2 -37 -6 -9 -3 -11
8 -7 9 4 15 3 14 -2 -3 -19 2 -33 18 -49 13 -14 14 -21 5 -36 -10 -15 -10 -19
0 -17 7 2 12 -5 12 -14 -1 -10 4 -18 11 -18 9 0 11 -8 7 -22 -4 -16 -2 -19 8
-13 10 6 12 4 7 -8 -3 -10 -2 -17 3 -17 6 0 10 -7 10 -16 0 -8 4 -12 10 -9 6
3 7 -1 4 -9 -4 -10 -1 -16 7 -16 12 0 12 -2 1 -9 -11 -6 -10 -10 3 -15 10 -4
15 -12 11 -22 -3 -8 -2 -13 3 -10 9 6 31 -36 31 -61 0 -10 6 -13 16 -9 14 5
15 4 5 -7 -9 -11 -8 -17 4 -27 8 -7 13 -16 10 -20 -3 -4 2 -11 11 -14 9 -4 14
-13 10 -21 -3 -9 0 -15 9 -15 8 0 14 -6 12 -12 -1 -7 5 -12 13 -10 12 3 12 1
3 -9 -10 -10 -8 -16 9 -31 14 -12 17 -18 7 -18 -8 -1 -3 -7 11 -15 14 -7 24
-17 23 -22 -5 -18 9 -43 20 -36 7 4 6 -1 -2 -11 -8 -9 -10 -16 -5 -15 5 1 16
1 24 0 13 -1 13 -2 0 -11 -11 -7 -11 -10 -2 -10 7 0 10 -4 7 -10 -3 -5 -1 -10
4 -10 6 0 11 -6 11 -13 0 -7 9 -23 20 -35 11 -12 20 -26 20 -32 0 -6 4 -9 9
-6 5 3 12 -1 15 -10 3 -8 2 -12 -4 -9 -6 3 -10 1 -10 -4 0 -6 5 -11 11 -11 6
0 17 -7 25 -15 12 -12 12 -15 2 -15 -8 0 -6 -5 5 -11 9 -6 15 -14 12 -19 -3
-5 -1 -11 5 -15 6 -4 7 -11 4 -17 -4 -6 -2 -8 3 -5 16 10 63 -31 56 -48 -3 -9
1 -15 10 -15 16 0 31 -26 28 -50 -1 -12 0 -12 7 -2 7 10 12 9 23 -4 12 -16 12
-17 -1 -10 -8 5 -1 -4 15 -19 17 -15 29 -31 28 -36 -2 -5 1 -9 7 -9 5 0 24
-15 41 -32 17 -18 35 -32 40 -31 4 2 6 -4 3 -12 -4 -8 -1 -15 6 -15 15 0 40
-25 40 -40 0 -6 5 -8 10 -5 6 3 10 1 10 -5 0 -6 5 -8 10 -5 6 3 10 -1 10 -9 0
-9 7 -16 16 -16 8 0 12 -4 9 -10 -3 -5 0 -10 8 -10 21 0 58 -40 50 -53 -4 -7
0 -6 10 2 14 11 17 11 18 0 1 -8 1 -18 0 -23 -1 -5 6 -3 15 5 10 8 15 10 13 4
-8 -14 24 -42 44 -39 10 1 15 -2 11 -7 -3 -5 6 -14 20 -21 14 -6 26 -15 26
-20 0 -4 7 -8 15 -8 8 0 15 -4 15 -10 0 -5 7 -10 15 -10 8 0 15 -5 15 -11 0
-5 4 -8 9 -5 4 3 19 -3 31 -14 12 -11 27 -17 31 -14 5 3 9 -2 9 -10 0 -10 6
-13 15 -10 8 4 15 2 15 -3 0 -6 18 -16 40 -23 21 -7 37 -16 35 -20 -3 -5 2
-11 11 -14 10 -4 13 -2 8 7 -6 9 -5 9 8 0 8 -7 18 -10 21 -6 4 3 7 1 7 -5 0
-7 9 -12 21 -12 12 0 18 -4 13 -11 -4 -7 -1 -10 7 -7 8 3 23 -2 33 -11 11 -9
16 -11 13 -4 -5 8 -1 8 17 0 13 -7 22 -16 19 -20 -3 -5 4 -6 16 -2 13 4 21 2
21 -5 0 -6 5 -8 10 -5 6 3 24 -4 42 -16 17 -13 28 -16 23 -8 -5 7 2 5 15 -6
15 -13 21 -15 16 -5 -5 9 -2 9 7 -2 10 -13 16 -15 25 -6 9 9 12 9 12 -1 0 -7
3 -10 8 -8 4 3 18 0 32 -5 14 -6 40 -11 58 -12 18 -1 36 -6 40 -12 4 -5 18 -9
32 -8 14 1 34 -6 45 -15 18 -15 19 -15 7 1 -12 15 -11 17 7 15 11 0 17 -5 15
-9 -6 -10 -9 -9 149 -17 16 0 26 -5 23 -9 -3 -5 11 -7 31 -5 19 1 44 -2 55 -8
14 -8 18 -8 14 0 -7 11 54 8 75 -4 8 -5 10 -4 5 3 -4 7 -1 12 8 12 9 0 16 8
17 18 0 13 3 11 10 -6 7 -19 29 -23 29 -6 0 3 -4 3 -9 -1 -6 -3 -9 3 -8 14 0
11 4 18 8 15 4 -2 10 2 12 8 4 10 6 10 6 1 1 -7 8 -13 16 -13 8 0 15 -5 15
-11 0 -6 7 -9 15 -5 10 3 15 -1 15 -12 0 -15 2 -15 10 -2 7 11 10 11 10 2 0
-17 59 -74 69 -68 4 3 14 -6 21 -19 7 -13 16 -22 20 -20 4 2 19 -18 34 -45 15
-28 31 -50 37 -50 5 0 9 -9 9 -19 0 -11 5 -23 10 -26 6 -4 8 -10 5 -15 -3 -4
2 -13 10 -20 8 -7 23 -31 33 -54 11 -23 33 -57 50 -76 18 -19 32 -40 32 -47 0
-6 9 -18 20 -26 11 -8 17 -17 13 -20 -3 -4 -1 -7 5 -7 7 0 12 -7 12 -15 0 -8
13 -29 30 -46 16 -18 27 -35 25 -40 -3 -4 3 -12 12 -18 10 -6 14 -11 9 -11 -5
0 0 -8 10 -18 10 -9 20 -23 22 -30 1 -7 14 -25 27 -38 23 -23 29 -37 26 -57
-1 -5 2 -6 6 -4 5 2 17 -4 28 -15 20 -19 20 -19 0 -13 -19 5 -19 5 0 -5 11 -6
26 -24 34 -41 7 -16 19 -29 27 -29 8 0 11 -6 7 -17 -5 -12 -2 -15 10 -10 9 3
16 3 15 -1 -4 -12 22 -52 34 -52 5 0 27 -18 48 -40 21 -22 45 -40 54 -40 15 0
21 -12 17 -33 -1 -5 3 -6 9 -2 5 3 10 1 10 -6 0 -7 3 -10 6 -6 6 6 17 -1 55
-35 12 -12 19 -14 19 -6 0 7 7 2 16 -10 8 -12 24 -22 36 -22 13 0 18 -5 15
-14 -4 -10 0 -12 15 -8 14 3 19 1 14 -6 -5 -8 -2 -10 8 -6 9 3 16 1 16 -6 0
-6 4 -8 10 -5 6 3 10 1 10 -5 0 -6 4 -8 10 -5 6 3 10 2 10 -4 0 -6 7 -8 15 -5
8 4 15 1 15 -6 0 -7 7 -10 15 -6 8 3 15 1 15 -3 0 -5 10 -7 22 -3 16 4 19 2
13 -8 -6 -10 -4 -12 8 -7 9 3 23 0 30 -8 11 -11 17 -11 27 -2 10 9 11 9 6 0
-5 -9 1 -13 19 -13 18 0 24 -4 19 -12 -5 -9 -2 -9 9 1 16 12 21 9 18 -12 -1
-4 7 -3 18 2 14 8 21 7 24 -2 4 -9 6 -9 6 1 1 7 6 10 12 6 7 -4 25 -7 40 -6
16 0 29 -5 29 -11 0 -7 4 -6 10 3 5 8 10 11 10 5 0 -6 90 -10 246 -11 148 -1
249 -5 253 -11 8 -13 1184 -13 1192 0 4 5 37 10 73 10 36 0 66 4 66 9 0 4 15
8 34 8 19 0 38 4 41 10 3 5 17 10 30 10 13 0 26 4 30 9 3 6 14 8 25 6 11 -2
20 1 20 6 0 6 4 8 9 4 5 -3 12 -1 16 5 3 5 17 10 31 10 13 0 24 5 24 11 0 6 6
9 13 6 6 -2 18 3 25 12 8 9 10 10 7 2 -6 -9 -1 -9 17 3 14 9 28 13 33 9 4 -5
5 -2 0 6 -6 11 -3 13 13 9 16 -4 19 -2 15 10 -4 10 -2 13 5 8 6 -3 13 -2 17 4
4 6 10 8 15 5 4 -3 11 2 14 11 3 8 10 13 14 10 4 -2 25 11 46 30 20 19 42 31
48 28 7 -4 8 -2 4 4 -4 7 -3 12 3 12 5 0 27 17 48 37 21 21 40 37 43 37 3 -1
14 7 25 19 11 11 13 16 5 12 -13 -8 -13 -7 -1 8 15 19 36 23 25 5 -4 -7 -3 -8
4 -4 7 4 12 14 12 21 0 8 9 19 21 25 11 7 18 14 15 17 -2 3 7 16 22 30 15 13
20 21 12 17 -8 -4 -5 3 8 15 12 12 22 27 22 32 0 6 7 8 16 5 8 -3 13 -2 10 3
-7 11 34 91 46 91 5 0 6 5 3 10 -3 6 -2 10 4 10 6 0 8 7 5 15 -4 8 1 17 10 21
9 3 13 10 10 15 -3 5 -1 9 5 9 5 0 8 9 6 20 -2 11 1 20 7 20 5 0 7 7 4 16 -3
8 -2 12 4 9 9 -6 14 8 11 28 0 4 5 7 11 7 9 0 8 4 -2 10 -12 8 -12 10 5 10 17
0 17 2 5 10 -10 6 -11 10 -2 10 6 0 12 9 12 20 0 11 4 20 10 20 5 0 7 7 4 15
-4 9 0 15 7 15 12 0 12 2 0 9 -9 6 -10 11 -2 15 6 4 9 11 6 16 -3 5 -1 11 4
15 6 3 8 12 4 20 -3 9 1 15 8 15 9 0 10 3 4 8 -12 9 -19 36 -7 28 5 -3 9 21 9
53 0 31 2 62 5 67 3 5 4 18 2 29 -2 11 -4 56 -5 100 -1 44 -5 85 -8 90 -3 6
-6 27 -7 47 -1 21 -8 45 -15 55 -12 14 -12 16 0 8 11 -6 12 -5 5 6 -10 16 -11
20 -13 55 0 14 -5 22 -11 19 -6 -3 -10 4 -10 17 0 13 -8 34 -17 47 -9 14 -11
21 -5 17 8 -5 10 -2 6 8 -3 9 -9 14 -14 11 -4 -2 -6 6 -5 20 2 13 -3 26 -11
29 -8 3 -14 12 -14 21 0 8 -5 15 -11 15 -5 0 -7 5 -4 10 3 6 0 10 -7 10 -10 0
-10 2 -1 8 9 6 8 11 -6 22 -11 7 -17 20 -13 28 3 10 1 13 -6 8 -8 -5 -12 0
-12 12 0 11 -7 25 -15 32 -9 7 -14 19 -11 27 3 8 1 11 -4 8 -6 -4 -18 8 -28
25 -9 18 -29 45 -44 62 -16 17 -25 35 -21 41 3 5 1 7 -4 4 -6 -4 -19 5 -29 18
-10 14 -24 25 -31 25 -7 0 -13 6 -13 14 0 8 -7 17 -16 20 -8 3 -12 11 -8 17 5
8 3 9 -5 4 -13 -7 -54 28 -45 39 2 3 1 4 -2 1 -4 -2 -20 7 -36 20 -16 14 -35
25 -41 25 -7 0 -6 5 3 11 13 9 12 10 -2 5 -22 -7 -50 3 -42 15 3 5 -4 9 -16 9
-13 0 -19 4 -14 12 5 7 3 8 -5 4 -7 -5 -20 -1 -29 7 -27 23 -142 78 -142 67 0
-5 -7 -7 -15 -4 -8 4 -12 10 -9 15 3 5 2 10 -3 10 -4 1 -21 3 -36 5 -16 1 -34
7 -40 12 -7 4 -22 7 -34 6 -14 -1 -23 4 -23 13 0 9 -5 11 -12 6 -21 -12 -38
-12 -38 0 0 8 -3 7 -9 -1 -7 -11 -9 -11 -14 0 -3 9 -19 14 -44 13 -21 -1 -41
4 -45 9 -5 7 -8 7 -8 1 0 -12 -179 -13 -198 -1 -7 4 -12 3 -12 -1 0 -12 -93
-10 -102 2 -5 7 -8 6 -8 -1 0 -6 -7 -11 -15 -11 -8 0 -15 5 -15 11 0 6 -4 6
-11 -1 -8 -8 -20 -8 -36 -2 -15 5 -22 5 -18 0 3 -6 -4 -9 -15 -8 -11 1 -20 5
-20 10 0 4 -6 5 -12 0 -17 -10 -68 -11 -74 -1 -3 4 -15 3 -26 -3 -11 -6 -23
-7 -27 -3 -9 13 -34 16 -26 4 8 -13 -8 -13 -22 1 -8 8 -13 8 -17 0 -5 -8 -13
-8 -28 0 -13 7 -18 7 -14 1 4 -6 -2 -10 -14 -9 -11 1 -20 5 -20 10 0 5 -6 5
-13 -2 -10 -8 -17 -7 -27 2 -10 9 -11 9 -6 0 8 -15 -10 -18 -19 -3 -4 7 -13 7
-24 0 -12 -6 -22 -5 -31 3 -7 7 -10 7 -7 2 7 -14 -85 -14 -95 0 -5 7 -8 6 -8
-1 0 -6 -7 -11 -15 -11 -8 0 -15 5 -15 11 0 6 -4 6 -12 -2 -7 -7 -17 -8 -30
-1 -10 5 -18 6 -18 2 0 -10 -252 -9 -268 1 -7 4 -12 3 -12 -2 0 -13 -63 -10
-72 3 -5 6 -8 6 -8 -1 0 -12 -49 -12 -68 0 -7 4 -12 3 -12 -1 0 -12 -93 -10
-102 2 -5 7 -8 6 -8 -1 0 -6 -7 -11 -15 -11 -8 0 -15 5 -15 11 0 6 -4 6 -12
-2 -7 -7 -17 -8 -30 -1 -10 5 -18 6 -18 2 0 -10 -173 -9 -188 1 -6 3 -12 0
-15 -6 -3 -10 -7 -10 -18 -1 -9 7 -20 9 -29 3 -9 -6 -20 -4 -29 3 -12 9 -13 9
-7 0 4 -7 3 -13 -3 -13 -5 0 -13 5 -16 10 -5 7 -11 8 -19 1 -7 -6 -17 -6 -26
-1 -9 5 -19 5 -27 -2 -9 -7 -13 -7 -13 1 0 9 -5 9 -20 1 -15 -8 -20 -8 -20 2
0 8 -3 9 -8 3 -8 -12 -42 -16 -42 -6 0 4 -6 8 -14 8 -9 0 -13 -9 -11 -24 1
-13 -2 -26 -8 -30 -6 -3 -7 -1 -3 5 7 12 -44 9 -64 -3 -13 -8 -112 93 -104
107 4 7 2 8 -4 4 -6 -4 -19 3 -29 15 -10 12 -34 39 -54 60 -21 21 -34 40 -31
43 3 3 -2 6 -12 6 -9 0 -14 5 -11 10 3 6 0 10 -9 10 -8 0 -13 8 -12 17 2 9
-15 34 -36 56 -21 22 -37 46 -34 53 3 7 -2 15 -9 18 -8 3 -21 21 -29 41 -8 19
-20 35 -25 35 -6 0 -10 3 -9 8 4 15 -31 78 -61 109 -17 18 -31 36 -31 41 0 15
-39 100 -48 104 -4 2 -18 18 -31 36 -12 18 -27 30 -32 27 -5 -4 -9 -1 -9 5 0
6 -12 24 -27 39 -43 45 -55 61 -44 61 5 0 -3 15 -20 32 -16 18 -29 40 -29 49
0 10 -5 19 -10 21 -6 2 -12 13 -13 25 0 12 -4 21 -8 20 -4 -1 -7 2 -7 7 0 5
-4 12 -9 15 -15 11 -43 68 -36 75 3 3 -1 6 -10 6 -10 0 -17 8 -17 19 0 10 -7
22 -16 25 -9 3 -14 13 -11 20 3 8 -1 17 -9 20 -8 3 -14 12 -14 21 0 8 -5 15
-11 15 -5 0 -7 5 -4 10 3 6 1 10 -5 10 -7 0 -9 7 -6 16 3 8 2 12 -4 9 -6 -3
-10 1 -10 10 0 9 -4 13 -10 10 -5 -3 -11 3 -11 14 -2 34 -4 39 -13 48 -5 5 -6
2 -2 -7 4 -8 -1 -4 -10 9 -27 36 -24 117 5 141 3 3 15 23 26 45 22 45 34 57
50 47 5 -3 4 2 -4 11 -12 15 -11 17 2 17 10 0 14 6 11 15 -4 8 -1 15 7 15 7 0
9 3 6 7 -4 3 1 12 11 20 11 10 12 12 2 8 -8 -4 -6 1 4 9 11 9 16 16 12 16 -5
0 -3 7 4 15 6 8 8 20 4 26 -4 7 -3 9 4 5 6 -3 16 3 22 14 6 11 8 20 5 20 -3 0
0 6 7 14 7 8 15 12 18 11 3 -2 7 6 7 17 1 12 8 25 15 29 7 5 9 9 4 9 -6 0 -2
6 9 13 10 8 15 19 11 25 -4 7 -1 12 9 12 9 0 13 5 10 10 -3 6 -2 10 4 10 6 0
8 6 5 14 -3 7 2 16 11 20 9 3 14 10 10 15 -3 6 2 14 11 19 9 5 15 13 15 18 -1
5 3 9 8 9 5 0 13 4 18 9 5 5 2 6 -6 1 -10 -6 -11 -2 -6 16 9 28 30 50 39 41 4
-3 4 1 1 10 -4 9 -2 19 4 23 6 3 11 15 11 26 0 11 5 17 10 14 6 -3 10 3 10 13
0 11 7 22 15 26 8 3 15 9 14 13 -4 23 2 47 9 36 5 -8 11 -3 19 13 8 18 8 22 0
17 -7 -3 -4 3 6 14 9 11 17 26 17 33 0 7 3 10 7 6 4 -3 15 12 25 34 10 22 23
40 29 40 6 0 7 5 3 11 -4 7 4 20 17 31 13 11 19 17 12 14 -8 -5 -8 0 0 18 7
13 15 22 18 20 4 -2 10 3 13 12 4 10 2 13 -7 9 -6 -4 -3 1 7 9 11 9 17 19 13
22 -4 4 1 13 11 21 11 10 12 12 2 8 -8 -4 -5 2 8 12 18 15 20 21 10 31 -9 9
-9 12 1 12 7 0 10 4 7 9 -3 5 4 11 17 15 13 3 28 18 35 33 10 24 10 25 5 3 -5
-22 -4 -23 10 -12 12 10 16 10 21 0 3 -7 3 -3 0 9 -4 18 -1 21 19 19 13 -2 30
-7 38 -11 12 -7 12 -6 1 7 -10 13 -10 18 -1 24 8 4 9 3 5 -4 -4 -7 -2 -12 3
-12 6 0 11 7 11 15 0 8 4 15 10 15 5 0 6 -8 3 -17 -6 -16 -5 -16 11 -4 17 14
16 16 -6 34 -23 19 -23 19 11 1 19 -11 35 -27 37 -36 2 -15 -1 -16 -18 -7 -14
7 -18 8 -14 1 4 -7 -1 -9 -14 -7 -22 4 -25 -2 -10 -25 8 -13 10 -12 10 4 0 16
2 17 17 5 14 -12 16 -12 8 0 -6 11 -4 13 10 7 12 -4 23 0 33 15 15 21 16 21
29 4 14 -21 43 -29 43 -13 0 6 -6 8 -14 5 -23 -9 -28 22 -6 35 11 7 20 16 20
20 0 5 -23 4 -40 -2 -3 -1 -9 -2 -13 -1 -5 1 -5 -4 -1 -10 5 -8 3 -9 -6 -4 -8
5 -11 4 -6 -3 3 -6 2 -13 -3 -16 -8 -5 -25 22 -21 33 1 2 -4 7 -12 12 -9 6 -6
8 9 6 17 -1 19 -4 11 -14 -13 -16 4 -17 19 -2 13 13 6 42 -7 34 -5 -3 -12 0
-16 6 -4 8 -3 9 4 5 7 -4 12 -1 12 6 0 8 5 6 11 -5 6 -9 15 -15 20 -12 5 4 7
10 4 14 -5 9 43 6 52 -3 3 -3 0 -13 -8 -23 -9 -11 -10 -14 -2 -9 9 5 11 2 7
-8 -3 -9 -1 -16 6 -16 6 0 8 5 5 10 -14 22 10 8 38 -22 29 -32 28 -20 -1 15
-14 15 -13 17 7 17 12 0 19 -4 16 -10 -3 -5 -1 -10 5 -10 6 0 9 8 6 18 -4 11
-1 19 6 20 55 4 69 18 19 18 -22 0 -39 -4 -38 -9 1 -5 -4 -12 -11 -14 -7 -3
-11 -1 -10 4 2 4 -1 8 -7 8 -5 0 -9 -6 -7 -12 2 -8 -3 -10 -12 -7 -19 7 -12
25 15 42 12 8 18 9 15 3 -4 -5 2 -9 14 -8 11 1 20 4 20 7 0 3 9 6 20 6 11 0
20 -4 20 -9 0 -5 7 -4 15 3 11 9 19 10 28 1 10 -8 17 -7 26 2 11 10 12 8 7
-10 -4 -12 -2 -24 3 -28 7 -4 8 1 4 11 -5 13 -3 15 7 9 9 -6 12 -4 8 7 -4 9 0
15 8 15 17 0 18 -19 2 -35 -6 -6 -9 -14 -6 -18 3 -3 14 8 24 25 20 34 39 42
29 12 -4 -12 0 -21 11 -25 15 -6 15 -4 3 11 -12 15 -12 16 4 10 10 -4 16 -3
12 2 -3 5 -1 12 5 16 5 3 10 1 10 -5 0 -6 5 -8 11 -4 6 4 38 8 70 9 49 2 59 0
60 -14 0 -12 2 -12 9 4 6 13 9 15 9 5 1 -13 2 -13 11 0 6 10 10 11 10 3 0 -7
5 -13 11 -13 5 0 8 3 6 8 -3 4 13 8 34 9 21 1 39 -3 39 -8 0 -6 8 -5 20 1 15
8 20 8 20 -1 0 -8 6 -7 18 4 15 13 20 14 36 1 11 -8 24 -10 30 -5 14 10 76 8
95 -3 10 -6 12 -5 7 2 -8 14 20 12 43 -2 9 -6 12 -5 8 1 -5 7 11 11 45 11 30
1 56 -4 60 -11 6 -9 8 -9 8 1 0 15 42 16 58 0 9 -9 13 -7 18 6 5 14 9 14 22 4
12 -10 16 -10 19 0 3 6 10 9 16 5 16 -10 69 -10 90 -1 9 5 17 5 17 1 0 -4 69
-7 152 -7 99 1 158 -3 167 -10 10 -8 13 -8 8 0 -4 8 88 11 323 10 214 -1 330
3 330 9 0 6 5 3 10 -5 8 -12 10 -12 10 -1 0 8 3 11 7 8 3 -4 12 -2 20 4 10 9
13 8 13 -2 0 -12 2 -12 9 0 6 9 10 10 16 2 5 -9 10 -9 20 -1 8 7 22 10 32 8
10 -2 24 3 31 12 12 13 13 13 7 -4 -6 -19 -5 -19 14 -2 12 11 29 16 41 13 11
-3 18 -2 15 3 -3 4 2 11 11 14 10 4 13 2 8 -7 -5 -8 -2 -8 9 2 9 7 23 11 32 7
8 -3 14 -2 14 2 -3 19 2 23 17 12 12 -11 15 -11 12 1 -2 8 3 13 10 11 6 -1 12
4 12 10 0 9 4 8 10 -2 8 -12 10 -12 10 -1 0 8 7 11 20 8 11 -3 18 -2 15 3 -3
4 3 14 12 21 12 10 14 10 9 2 -4 -7 -3 -13 2 -13 6 0 12 7 16 15 3 9 12 12 22
8 12 -4 15 -3 10 5 -6 11 5 17 27 13 4 0 7 4 7 10 0 6 7 9 15 5 9 -3 15 0 15
10 0 8 4 13 9 9 6 -3 14 3 20 12 6 10 11 14 11 8 0 -5 10 1 21 15 11 14 17 18
13 10 -5 -11 -2 -10 13 3 11 9 23 14 26 10 4 -3 7 1 7 11 0 9 4 15 9 12 4 -3
20 7 34 22 37 39 54 52 61 45 6 -6 10 13 7 31 -1 5 7 6 19 3 12 -3 18 -1 14 5
-3 5 3 18 15 29 12 11 21 25 21 30 0 6 7 9 15 5 8 -3 14 -2 13 2 -1 4 3 17 10
28 6 12 8 24 4 28 -3 4 2 4 13 0 11 -4 17 -4 13 1 -4 4 5 26 21 49 15 22 30
49 34 59 4 9 11 17 17 17 6 0 8 5 5 10 -3 6 -1 10 5 10 6 0 8 5 5 10 -3 6 -2
10 3 10 6 0 9 8 8 18 0 9 4 16 11 15 7 -2 10 3 7 11 -3 8 0 17 5 21 6 3 9 11
6 16 -4 5 -1 9 4 9 6 0 10 3 10 8 -3 16 14 72 22 72 5 0 6 7 3 15 -4 8 -1 15
7 15 7 0 10 3 6 6 -3 4 0 21 8 39 7 19 11 36 8 39 -3 3 0 12 7 21 10 12 10 15
-1 15 -10 0 -11 2 -2 8 7 4 13 25 14 47 1 22 7 48 12 59 7 13 6 16 -3 11 -9
-5 -9 -3 -2 11 11 23 9 194 -3 213 -5 9 -4 12 2 8 5 -3 10 0 10 8 0 8 -3 12
-7 10 -4 -2 -8 17 -9 42 0 25 -7 53 -14 62 -10 12 -9 13 3 6 12 -7 13 -6 3 6
-7 8 -12 24 -12 34 -1 34 -7 59 -20 83 -6 12 -9 28 -5 34 5 7 3 8 -6 3 -10 -6
-12 -3 -8 13 4 12 2 20 -3 16 -9 -5 -13 9 -10 34 1 6 -4 12 -10 12 -7 0 -10 3
-6 6 3 4 -1 13 -9 21 -8 8 -12 19 -9 24 4 5 1 9 -5 9 -6 0 -8 5 -5 10 3 6 1
10 -6 10 -7 0 -9 3 -6 7 4 3 -1 12 -11 20 -10 9 -11 12 -2 7 11 -6 10 -2 -3
13 -9 11 -14 23 -10 26 3 4 1 7 -6 7 -7 0 -9 5 -6 10 3 6 -1 10 -10 10 -9 0
-13 5 -10 10 3 6 1 10 -4 10 -6 0 -11 6 -11 14 0 8 -16 30 -36 50 -20 20 -29
34 -21 30 9 -3 -12 23 -46 59 -34 35 -64 63 -66 61 -6 -5 -29 21 -24 29 2 4
-2 7 -9 7 -8 0 -21 9 -31 20 -10 12 -23 18 -29 14 -6 -4 -9 -3 -6 2 6 9 -13
32 -29 37 -5 1 -7 6 -5 10 1 5 -2 6 -8 2 -5 -3 -10 0 -10 7 0 9 -3 9 -10 -2
-7 -11 -10 -12 -10 -2 0 20 -23 39 -43 36 -10 -1 -17 5 -18 14 0 11 -3 12 -6
5 -3 -10 -8 -9 -20 2 -8 8 -19 12 -25 9 -6 -4 -8 -3 -5 2 3 6 -3 16 -15 23
-16 10 -19 10 -13 -1 3 -7 1 -6 -7 3 -7 9 -19 14 -27 11 -7 -2 -16 -1 -20 4
-3 5 -17 15 -30 22 -19 11 -22 11 -15 0 4 -7 -5 -2 -21 12 -16 14 -25 20 -21
13 4 -8 -1 -11 -14 -10 -11 1 -20 8 -20 17 0 13 -1 13 -10 0 -5 -8 -10 -10
-10 -4 0 6 -11 10 -24 9 -17 -2 -23 1 -20 10 4 8 -3 11 -23 9 -15 -1 -33 2
-39 7 -8 7 -15 6 -19 -2 -6 -8 -9 -8 -15 1 -6 10 -209 13 -951 14 -519 1 -957
-1 -974 -2z m1826 -752 c25 5 39 4 39 -3 0 -6 3 -7 7 -4 3 4 12 -1 20 -11 14
-16 14 -16 9 1 -5 15 -3 16 17 5 12 -7 28 -11 35 -10 6 2 12 -2 12 -8 0 -5 6
-9 13 -7 6 1 11 -3 10 -10 -1 -6 8 -10 22 -8 16 1 25 -3 25 -12 0 -8 4 -12 8
-9 5 3 18 -3 29 -14 12 -10 24 -16 27 -12 4 3 4 -2 0 -12 -6 -15 -4 -17 6 -11
10 6 12 4 7 -7 -4 -12 0 -15 16 -11 18 4 19 3 7 -6 -13 -9 -12 -11 4 -11 12 0
16 -5 12 -15 -3 -8 0 -14 7 -12 7 1 11 -3 10 -10 -2 -6 6 -15 17 -18 11 -4 18
-10 15 -15 -3 -4 2 -21 10 -36 8 -16 15 -35 15 -42 0 -7 4 -11 8 -8 5 3 9 -1
9 -9 0 -8 -5 -15 -11 -15 -7 0 -6 -4 1 -8 7 -5 14 -27 15 -50 1 -23 6 -42 12
-42 8 0 8 -2 0 -8 -6 -4 -11 -14 -12 -22 -3 -75 -7 -102 -14 -106 -4 -3 -8
-16 -8 -30 0 -14 -3 -23 -7 -21 -5 3 -9 -7 -10 -21 0 -15 -6 -28 -12 -30 -6
-2 -11 -8 -11 -13 0 -6 -10 -20 -22 -33 -13 -13 -29 -33 -37 -44 -8 -12 -18
-19 -23 -16 -4 3 -8 0 -8 -6 0 -7 -6 -10 -14 -7 -10 4 -14 0 -11 -13 3 -13 -1
-17 -11 -13 -8 3 -14 0 -14 -7 0 -6 -4 -8 -10 -5 -5 3 -10 -1 -10 -11 0 -14
-2 -15 -17 -3 -10 9 -14 9 -10 2 8 -13 -26 -37 -37 -26 -3 3 -6 1 -6 -6 0 -7
-4 -9 -10 -6 -5 3 -10 2 -10 -2 0 -10 -10 -12 -110 -16 -41 -2 -83 1 -94 6
-13 7 -16 6 -11 -3 5 -9 3 -9 -11 -2 -11 5 -25 7 -32 5 -7 -3 -12 -1 -11 4 4
20 -2 24 -18 12 -11 -10 -14 -10 -9 -1 5 8 0 12 -13 12 -12 0 -21 5 -21 11 0
5 -4 8 -9 4 -6 -3 -14 3 -20 12 -8 14 -11 15 -11 3 0 -12 -3 -11 -11 3 -6 9
-14 15 -20 12 -5 -4 -9 4 -9 17 0 15 -3 19 -8 10 -6 -9 -14 -6 -30 13 -12 14
-19 25 -16 25 4 0 -5 9 -20 21 -14 11 -26 27 -26 35 0 8 -4 14 -10 14 -5 0
-10 9 -10 21 0 11 -4 17 -10 14 -5 -3 -10 3 -10 14 0 12 -4 21 -10 21 -5 0
-10 6 -10 14 0 7 -9 16 -20 19 -11 3 -20 13 -20 22 0 14 -3 15 -15 5 -12 -10
-14 -8 -10 8 2 14 -2 21 -13 21 -40 1 -48 5 -48 23 0 10 6 18 13 18 6 0 14 4
18 9 3 6 -7 8 -22 6 -16 -2 -22 -2 -15 1 10 5 10 9 0 22 -10 14 -10 15 2 5 19
-17 27 -16 27 2 0 8 -4 15 -9 15 -4 0 -8 7 -8 17 0 14 3 14 22 -3 13 -12 18
-13 13 -4 -13 21 -15 41 -4 34 5 -3 9 0 9 7 0 8 4 8 15 -1 13 -11 14 -10 10 3
-4 8 -1 18 6 23 8 5 10 3 5 -7 -4 -8 0 -5 8 5 9 11 16 16 16 10 0 -5 11 9 24
31 13 22 22 43 20 47 -3 5 0 8 7 8 7 0 9 3 6 6 -10 11 13 45 25 38 6 -4 8 -3
4 4 -3 6 -2 13 4 17 6 4 8 11 5 16 -4 5 1 9 9 9 10 0 13 6 9 17 -4 11 -3 14 5
9 7 -4 12 -2 12 4 0 6 5 8 10 5 6 -3 10 1 10 10 0 11 5 15 15 11 8 -3 14 -2
14 2 -3 18 2 35 8 28 4 -3 13 4 21 16 11 19 12 19 7 3 -4 -15 0 -13 20 9 14
16 25 23 25 16 0 -10 3 -10 16 1 9 8 22 14 28 15 6 0 17 2 24 2 7 1 11 6 8 11
-4 5 2 7 11 5 10 -2 32 0 48 5 17 4 34 5 38 1 4 -4 26 -4 48 0z m-2988 -481
c4 -16 3 -18 -9 -8 -7 6 -11 15 -8 20 8 13 11 11 17 -12z m727 -1283 c0 -2 -8
-10 -17 -17 -16 -13 -17 -12 -4 4 13 16 21 21 21 13z m-180 -16 c0 -5 -5 -10
-11 -10 -5 0 -7 5 -4 10 3 6 8 10 11 10 2 0 4 -4 4 -10z m-2670 -2960 c0 -5
-2 -10 -4 -10 -3 0 -8 5 -11 10 -3 6 -1 10 4 10 6 0 11 -4 11 -10z"/>
<path d="M5930 6895 c-11 -13 -10 -14 4 -9 9 3 16 10 16 15 0 13 -6 11 -20 -6z"/>
<path d="M4413 5694 c3 -4 2 -15 -4 -25 -7 -14 -6 -17 4 -14 16 7 20 45 5 45
-6 0 -8 -3 -5 -6z"/>
<path d="M4697 5681 c-4 -17 -3 -21 5 -13 5 5 8 16 6 23 -3 8 -7 3 -11 -10z"/>
<path d="M4245 5680 c6 -10 4 -12 -8 -7 -11 4 -21 -1 -28 -16 -11 -19 -10 -20
3 -10 8 7 17 11 20 8 3 -3 11 1 17 9 9 11 9 16 0 22 -8 5 -9 3 -4 -6z"/>
<path d="M4606 5681 c-3 -5 0 -11 7 -14 8 -3 14 1 14 9 0 16 -13 19 -21 5z"/>
<path d="M4650 5679 c0 -5 5 -7 10 -4 6 3 10 8 10 11 0 2 -4 4 -10 4 -5 0 -10
-5 -10 -11z"/>
<path d="M4531 5656 c18 -19 59 -29 59 -14 0 5 -6 8 -14 5 -7 -3 -24 2 -37 10
-22 15 -23 15 -8 -1z"/>
<path d="M4720 5655 c-7 -8 -17 -12 -23 -8 -6 4 -7 1 -3 -6 6 -9 13 -8 27 5
10 9 19 19 19 21 0 7 -8 2 -20 -12z"/>
<path d="M4374 5651 c4 -5 1 -12 -4 -14 -6 -3 -5 -4 2 -3 15 3 23 26 8 26 -6
0 -9 -4 -6 -9z"/>
<path d="M4651 5644 c0 -11 3 -14 6 -6 3 7 2 16 -1 19 -3 4 -6 -2 -5 -13z"/>
<path d="M4450 5640 c0 -5 5 -10 10 -10 6 0 10 5 10 10 0 6 -4 10 -10 10 -5 0
-10 -4 -10 -10z"/>
<path d="M4515 5643 c3 -3 0 -11 -5 -18 -7 -8 -5 -12 4 -12 14 0 16 22 3 32
-4 3 -5 2 -2 -2z"/>
<path d="M4750 5639 c0 -5 5 -7 10 -4 6 3 10 8 10 11 0 2 -4 4 -10 4 -5 0 -10
-5 -10 -11z"/>
<path d="M4395 5629 c-4 -6 -5 -12 -2 -15 2 -3 7 2 10 11 7 17 1 20 -8 4z"/>
<path d="M4419 5628 c-6 -22 -5 -39 3 -45 7 -4 8 -1 3 7 -6 9 -4 12 7 8 8 -4
15 -1 15 7 0 8 -7 11 -15 7 -10 -3 -13 -1 -8 6 4 7 5 12 2 12 -3 0 -6 -1 -7
-2z"/>
<path d="M4240 5610 c-8 -5 -10 -10 -5 -10 6 0 17 5 25 10 8 5 11 10 5 10 -5
0 -17 -5 -25 -10z"/>
<path d="M4281 5604 c0 -11 3 -14 6 -6 3 7 2 16 -1 19 -3 4 -6 -2 -5 -13z"/>
<path d="M4915 5611 c-3 -5 -2 -12 3 -15 5 -3 9 1 9 9 0 17 -3 19 -12 6z"/>
<path d="M4474 5589 c-3 -6 -2 -15 3 -20 5 -5 9 -1 9 11 0 23 -2 24 -12 9z"/>
<path d="M4180 5570 c-6 -11 -7 -20 -2 -20 6 0 12 9 15 20 3 11 3 20 1 20 -2
0 -8 -9 -14 -20z"/>
<path d="M4299 5588 c-5 -18 -6 -39 -2 -34 4 3 13 0 22 -6 12 -10 12 -7 -2 8
-9 11 -14 24 -10 27 3 4 3 7 0 7 -4 0 -7 -1 -8 -2z"/>
<path d="M4655 5579 c-3 -4 2 -6 10 -5 21 3 28 13 10 13 -9 0 -18 -4 -20 -8z"/>
<path d="M4031 5577 c2 -1 13 -9 24 -17 19 -14 19 -14 6 3 -7 9 -18 17 -24 17
-6 0 -8 -1 -6 -3z"/>
<path d="M4373 5567 c0 -8 12 -13 28 -13 15 0 26 3 23 8 -3 5 -10 6 -15 2 -5
-3 -16 -1 -23 5 -9 8 -13 7 -13 -2z"/>
<path d="M4233 5545 c0 -8 4 -12 9 -9 5 3 6 10 3 15 -9 13 -12 11 -12 -6z"/>
<path d="M3229 1757 c6 -8 7 -18 3 -22 -4 -5 -1 -5 6 -1 10 6 10 11 1 22 -6 8
-14 14 -16 14 -3 0 0 -6 6 -13z"/>
</g>
</svg>
